<svg width="139" height="32" viewBox="0 0 139 32" fill="none" xmlns="http://www.w3.org/2000/svg">
<path opacity="0.2" d="M26.6363 21.56C25.6667 23.4146 24.229 24.9834 22.4658 26.1107C20.7026 27.238 18.6753 27.8846 16.585 27.9863L16.9813 25.9313C17.0107 25.777 17.0035 25.618 16.96 25.467C16.9166 25.3161 16.8382 25.1775 16.7313 25.0625L14.2638 22.5213C14.1308 22.3777 14.0428 22.1982 14.0108 22.0051C13.9788 21.8121 14.0042 21.6138 14.0838 21.435L15.7963 17.5925C15.8843 17.3951 16.034 17.2314 16.2228 17.1262C16.4117 17.021 16.6295 16.9798 16.8438 17.0088L19.6963 17.3938C19.8344 17.4127 19.9672 17.4599 20.0863 17.5325L26.6363 21.56ZM14.5888 11.875L16.125 11.03C16.1928 10.9933 16.2558 10.9484 16.3125 10.8963L19.6763 7.85501C19.8437 7.70274 19.9545 7.49817 19.9906 7.27475C20.0267 7.05133 19.986 6.82227 19.875 6.62501L18.5625 4.27376C17.7206 4.09138 16.8615 3.99961 16 4.00001C13.2609 3.99584 10.6034 4.93269 8.47251 6.65376L7.00001 10.135C6.90055 10.3707 6.89519 10.6355 6.98502 10.875L8.42251 14.7088C8.48158 14.8654 8.57902 15.0047 8.70591 15.1139C8.8328 15.2231 8.98507 15.2987 9.14877 15.3338L9.48501 15.4063L11.15 12.5C11.2379 12.3478 11.3644 12.2214 11.5167 12.1336C11.669 12.0458 11.8417 11.9998 12.0175 12H14.1063C14.2751 12.0003 14.4413 11.9573 14.5888 11.875Z" fill="#EF5F4C"/>
<path d="M16 3C13.4288 3 10.9154 3.76244 8.77759 5.1909C6.63975 6.61935 4.97351 8.64968 3.98957 11.0251C3.00563 13.4006 2.74819 16.0144 3.2498 18.5362C3.75141 21.0579 4.98953 23.3743 6.80762 25.1924C8.6257 27.0105 10.9421 28.2486 13.4638 28.7502C15.9856 29.2518 18.5995 28.9944 20.9749 28.0104C23.3503 27.0265 25.3807 25.3603 26.8091 23.2224C28.2376 21.0846 29 18.5712 29 16C28.9964 12.5533 27.6256 9.24882 25.1884 6.81163C22.7512 4.37445 19.4467 3.00364 16 3ZM27 16C27.0011 17.4112 26.7295 18.8094 26.2 20.1175L20.6125 16.6812C20.3749 16.5347 20.1092 16.4397 19.8325 16.4025L16.98 16.0175C16.5869 15.9662 16.1875 16.0321 15.8317 16.2069C15.476 16.3817 15.1797 16.6576 14.98 17H13.89L13.415 16.0175C13.2837 15.7439 13.0915 15.504 12.8532 15.3162C12.6148 15.1283 12.3367 14.9975 12.04 14.9338L11.04 14.7175L12.0175 13H14.1063C14.4442 12.9993 14.7766 12.9133 15.0725 12.75L16.6038 11.905C16.7383 11.83 16.8641 11.7403 16.9788 11.6375L20.3425 8.595C20.6798 8.29277 20.9039 7.8846 20.978 7.43784C21.0521 6.99108 20.9717 6.53241 20.75 6.1375L20.705 6.05625C22.5873 6.94875 24.1778 8.35674 25.292 10.1168C26.4063 11.8769 26.9985 13.9169 27 16ZM17.9138 5.1675L19 7.1125L15.6363 10.155L14.1063 11H12.0175C11.6659 10.9995 11.3204 11.0916 11.0158 11.2672C10.7112 11.4428 10.4583 11.6955 10.2825 12L9.19126 13.9038L7.92251 10.5238L9.29001 7.29C10.5004 6.35474 11.8929 5.68262 13.3781 5.31669C14.8633 4.95076 16.4086 4.8991 17.915 5.165L17.9138 5.1675ZM5.00001 16C4.99834 14.365 5.36311 12.7505 6.06751 11.275L7.48501 15.0588C7.60313 15.372 7.79802 15.6506 8.0518 15.869C8.30558 16.0874 8.61012 16.2386 8.93751 16.3088L11.6163 16.885L12.0925 17.875C12.2578 18.2117 12.5139 18.4955 12.832 18.6943C13.1501 18.8931 13.5174 18.999 13.8925 19H14.0775L13.1738 21.0287C13.0145 21.386 12.9635 21.782 13.0271 22.168C13.0906 22.5539 13.2659 22.9127 13.5313 23.2L13.5488 23.2175L16 25.7425L15.7575 26.9925C12.8848 26.9256 10.152 25.7387 8.14216 23.685C6.13236 21.6313 5.00477 18.8735 5.00001 16ZM17.8225 26.8475L17.9638 26.1213C18.0218 25.8127 18.0068 25.4949 17.92 25.1931C17.8332 24.8914 17.6769 24.6142 17.4638 24.3838C17.4576 24.3782 17.4518 24.3724 17.4463 24.3662L15 21.8425L16.7125 18L19.565 18.385L25.28 21.9C24.452 23.2003 23.3605 24.3125 22.076 25.1647C20.7914 26.0169 19.3424 26.5902 17.8225 26.8475Z" fill="#EF5F4C"/>
<path d="M50.56 13.4C50.3067 12.9333 49.94 12.58 49.46 12.34C48.9933 12.0867 48.44 11.96 47.8 11.96C46.6933 11.96 45.8067 12.3267 45.14 13.06C44.4733 13.78 44.14 14.7467 44.14 15.96C44.14 17.2533 44.4867 18.2667 45.18 19C45.8867 19.72 46.8533 20.08 48.08 20.08C48.92 20.08 49.6267 19.8667 50.2 19.44C50.7867 19.0133 51.2133 18.4 51.48 17.6H47.14V15.08H54.58V18.26C54.3267 19.1133 53.8933 19.9067 53.28 20.64C52.68 21.3733 51.9133 21.9667 50.98 22.42C50.0467 22.8733 48.9933 23.1 47.82 23.1C46.4333 23.1 45.1933 22.8 44.1 22.2C43.02 21.5867 42.1733 20.74 41.56 19.66C40.96 18.58 40.66 17.3467 40.66 15.96C40.66 14.5733 40.96 13.34 41.56 12.26C42.1733 11.1667 43.02 10.32 44.1 9.72C45.18 9.10667 46.4133 8.8 47.8 8.8C49.48 8.8 50.8933 9.20667 52.04 10.02C53.2 10.8333 53.9667 11.96 54.34 13.4H50.56ZM58.0744 23.16C57.4744 23.16 56.981 22.9867 56.5944 22.64C56.221 22.28 56.0344 21.84 56.0344 21.32C56.0344 20.7867 56.221 20.34 56.5944 19.98C56.981 19.62 57.4744 19.44 58.0744 19.44C58.661 19.44 59.141 19.62 59.5144 19.98C59.901 20.34 60.0944 20.7867 60.0944 21.32C60.0944 21.84 59.901 22.28 59.5144 22.64C59.141 22.9867 58.661 23.16 58.0744 23.16ZM77.0572 13.48C77.0572 14.2933 76.8705 15.04 76.4972 15.72C76.1239 16.3867 75.5505 16.9267 74.7772 17.34C74.0039 17.7533 73.0439 17.96 71.8972 17.96H69.7772V23H66.3572V8.96H71.8972C73.0172 8.96 73.9639 9.15333 74.7372 9.54C75.5105 9.92667 76.0905 10.46 76.4772 11.14C76.8639 11.82 77.0572 12.6 77.0572 13.48ZM71.6372 15.24C72.2905 15.24 72.7772 15.0867 73.0972 14.78C73.4172 14.4733 73.5772 14.04 73.5772 13.48C73.5772 12.92 73.4172 12.4867 73.0972 12.18C72.7772 11.8733 72.2905 11.72 71.6372 11.72H69.7772V15.24H71.6372ZM82.2577 8.2V23H78.8377V8.2H82.2577ZM84.0561 17.4C84.0561 16.2533 84.2694 15.2467 84.6961 14.38C85.1361 13.5133 85.7294 12.8467 86.4761 12.38C87.2228 11.9133 88.0561 11.68 88.9761 11.68C89.7628 11.68 90.4494 11.84 91.0361 12.16C91.6361 12.48 92.0961 12.9 92.4161 13.42V11.84H95.8361V23H92.4161V21.42C92.0828 21.94 91.6161 22.36 91.0161 22.68C90.4294 23 89.7428 23.16 88.9561 23.16C88.0494 23.16 87.2228 22.9267 86.4761 22.46C85.7294 21.98 85.1361 21.3067 84.6961 20.44C84.2694 19.56 84.0561 18.5467 84.0561 17.4ZM92.4161 17.42C92.4161 16.5667 92.1761 15.8933 91.6961 15.4C91.2294 14.9067 90.6561 14.66 89.9761 14.66C89.2961 14.66 88.7161 14.9067 88.2361 15.4C87.7694 15.88 87.5361 16.5467 87.5361 17.4C87.5361 18.2533 87.7694 18.9333 88.2361 19.44C88.7161 19.9333 89.2961 20.18 89.9761 20.18C90.6561 20.18 91.2294 19.9333 91.6961 19.44C92.1761 18.9467 92.4161 18.2733 92.4161 17.42ZM104.53 20.1V23H102.79C101.55 23 100.584 22.7 99.8903 22.1C99.197 21.4867 98.8503 20.4933 98.8503 19.12V14.68H97.4903V11.84H98.8503V9.12H102.27V11.84H104.51V14.68H102.27V19.16C102.27 19.4933 102.35 19.7333 102.51 19.88C102.67 20.0267 102.937 20.1 103.31 20.1H104.53ZM116.955 17.24C116.955 17.56 116.935 17.8933 116.895 18.24H109.155C109.209 18.9333 109.429 19.4667 109.815 19.84C110.215 20.2 110.702 20.38 111.275 20.38C112.129 20.38 112.722 20.02 113.055 19.3H116.695C116.509 20.0333 116.169 20.6933 115.675 21.28C115.195 21.8667 114.589 22.3267 113.855 22.66C113.122 22.9933 112.302 23.16 111.395 23.16C110.302 23.16 109.329 22.9267 108.475 22.46C107.622 21.9933 106.955 21.3267 106.475 20.46C105.995 19.5933 105.755 18.58 105.755 17.42C105.755 16.26 105.989 15.2467 106.455 14.38C106.935 13.5133 107.602 12.8467 108.455 12.38C109.309 11.9133 110.289 11.68 111.395 11.68C112.475 11.68 113.435 11.9067 114.275 12.36C115.115 12.8133 115.769 13.46 116.235 14.3C116.715 15.14 116.955 16.12 116.955 17.24ZM113.455 16.34C113.455 15.7533 113.255 15.2867 112.855 14.94C112.455 14.5933 111.955 14.42 111.355 14.42C110.782 14.42 110.295 14.5867 109.895 14.92C109.509 15.2533 109.269 15.7267 109.175 16.34H113.455ZM122.18 13.7C122.58 13.0867 123.08 12.6067 123.68 12.26C124.28 11.9 124.946 11.72 125.68 11.72V15.34H124.74C123.886 15.34 123.246 15.5267 122.82 15.9C122.393 16.26 122.18 16.9 122.18 17.82V23H118.76V11.84H122.18V13.7ZM132.394 23.16C131.301 23.16 130.314 22.9267 129.434 22.46C128.568 21.9933 127.881 21.3267 127.374 20.46C126.881 19.5933 126.634 18.58 126.634 17.42C126.634 16.2733 126.888 15.2667 127.394 14.4C127.901 13.52 128.594 12.8467 129.474 12.38C130.354 11.9133 131.341 11.68 132.434 11.68C133.528 11.68 134.514 11.9133 135.394 12.38C136.274 12.8467 136.968 13.52 137.474 14.4C137.981 15.2667 138.234 16.2733 138.234 17.42C138.234 18.5667 137.974 19.58 137.454 20.46C136.948 21.3267 136.248 21.9933 135.354 22.46C134.474 22.9267 133.488 23.16 132.394 23.16ZM132.394 20.2C133.048 20.2 133.601 19.96 134.054 19.48C134.521 19 134.754 18.3133 134.754 17.42C134.754 16.5267 134.528 15.84 134.074 15.36C133.634 14.88 133.088 14.64 132.434 14.64C131.768 14.64 131.214 14.88 130.774 15.36C130.334 15.8267 130.114 16.5133 130.114 17.42C130.114 18.3133 130.328 19 130.754 19.48C131.194 19.96 131.741 20.2 132.394 20.2Z" fill="#EF5F4C"/>
</svg>
